<svg version="1.2" xmlns="http://www.w3.org/2000/svg" viewBox="0 0 100 100" width="100" height="100">
	<title>back</title>
	<defs>
		<clipPath clipPathUnits="userSpaceOnUse" id="cp1">
			<path d="m0 0h100v100h-100z"/>
		</clipPath>
	</defs>
	<style>
		.s0 { fill: #3ac568 } 
	</style>
	<g id="Clip-Path" clip-path="url(#cp1)">
		<g>
			<path class="s0" d="m2.5 43.9l23.2-23.1c3.3-3.4 8.8-3.4 12.2 0 3.4 3.3 3.4 8.8 0 12.2l-23.1 23.1c-3.4 3.4-8.9 3.4-12.3 0-3.3-3.4-3.3-8.8 0-12.2z"/>
			<path class="s0" d="m8.6 41.4h82.8c4.7 0 8.6 3.8 8.6 8.6 0 4.8-3.9 8.7-8.6 8.7h-82.8c-4.7 0-8.6-3.9-8.6-8.7 0-4.8 3.9-8.6 8.6-8.6z"/>
			<path class="s0" d="m14.8 43.9l23.1 23.1c3.4 3.4 3.4 8.9 0 12.2-3.4 3.4-8.9 3.4-12.2 0l-23.2-23.1c-3.3-3.4-3.3-8.8 0-12.2 3.4-3.4 8.9-3.4 12.3 0z"/>
		</g>
	</g>
</svg>