<svg version="1.2" xmlns="http://www.w3.org/2000/svg" viewBox="0 0 100 100" width="100" height="100">
	<title>close</title>
	<defs>
		<clipPath clipPathUnits="userSpaceOnUse" id="cp1">
			<path d="m0 0h100v100h-100z"/>
		</clipPath>
	</defs>
	<style>
		.s0 { fill: #3ac568 } 
	</style>
	<g id="Clip-Path" clip-path="url(#cp1)">
		<g>
			<path fill-rule="evenodd" class="s0" d="m50 37.8l-35.2-35.3c-3.4-3.3-8.9-3.3-12.3 0-3.3 3.4-3.3 8.9 0 12.3l35.3 35.2-35.3 35.2c-3.3 3.4-3.3 8.9 0 12.3 3.4 3.3 8.9 3.3 12.3 0l35.2-35.3 35.2 35.3c3.4 3.3 8.9 3.3 12.3 0 3.3-3.4 3.3-8.9 0-12.3l-35.3-35.2 35.3-35.2c3.3-3.4 3.3-8.9 0-12.3-3.4-3.3-8.9-3.3-12.3 0z"/>
		</g>
	</g>
</svg>