<svg version="1.2" xmlns="http://www.w3.org/2000/svg" viewBox="0 0 100 100" width="100" height="100">
	<title>menu</title>
	<defs>
		<clipPath clipPathUnits="userSpaceOnUse" id="cp1">
			<path d="m0 0h100v100h-100z"/>
		</clipPath>
	</defs>
	<style>
		.s0 { fill: #68f396 } 
		.s1 { fill: #75ea9b } 
		.s2 { fill: #3ac568 } 
	</style>
	<g id="Clip-Path" clip-path="url(#cp1)">
		<g>
			<path class="s0" d="m8.6 6.8h82.8c4.7 0 8.6 3.8 8.6 8.6 0 4.8-3.9 8.7-8.6 8.7h-82.8c-4.7 0-8.6-3.9-8.6-8.7 0-4.8 3.9-8.6 8.6-8.6z"/>
			<path class="s1" d="m8.6 41.4h82.8c4.7 0 8.6 3.8 8.6 8.6 0 4.8-3.9 8.7-8.6 8.7h-82.8c-4.7 0-8.6-3.9-8.6-8.7 0-4.8 3.9-8.6 8.6-8.6z"/>
			<path class="s2" d="m8.6 75.9h82.8c4.7 0 8.6 3.9 8.6 8.7 0 4.8-3.9 8.6-8.6 8.6h-82.8c-4.7 0-8.6-3.8-8.6-8.6 0-4.8 3.9-8.7 8.6-8.7z"/>
		</g>
	</g>
</svg>